{
  "accessors": [
    {
      "bufferView": 2,
      "componentType": 5126,
      "count": 51555,
      "max": [
        2.3501875400543213,
        15.460914611816406,
        3.4836246967315674
      ],
      "min": [
        -4.49146842956543,
        6.563040256500244,
        -3.60907244682312
      ],
      "type": "VEC3"
    },
    {
      "bufferView": 2,
      "byteOffset": 618660,
      "componentType": 5126,
      "count": 51555,
      "max": [
        0.9999865889549255,
        0.9997838139533997,
        0.9999954700469971
      ],
      "min": [
        -0.9999815821647644,
        -0.9999278783798218,
        -0.9998872876167297
      ],
      "type": "VEC3"
    },
    {
      "bufferView": 1,
      "componentType": 5126,
      "count": 51555,
      "max": [
        0.9932829737663269,
        0.9999639987945557
      ],
      "min": [
        0.00012199999764561653,
        7.699999696342275e-05
      ],
      "type": "VEC2"
    },
    {
      "bufferView": 0,
      "componentType": 5125,
      "count": 299997,
      "type": "SCALAR"
    }
  ],
  "asset": {
    "extras": {
      "author": "fallenffgrave (https://sketchfab.com/fallenffgrave)",
      "license": "CC-BY-4.0 (http://creativecommons.org/licenses/by/4.0/)",
      "source": "https://sketchfab.com/3d-models/ef0631ac629c40e0b2b7ddecbe4958c6",
      "title": "Скульптор Гурам"
    },
    "generator": "Sketchfab-11.68.0",
    "version": "2.0"
  },
  "bufferViews": [
    {
      "buffer": 0,
      "byteLength": 1199988,
      "name": "floatBufferViews",
      "target": 34963
    },
    {
      "buffer": 0,
      "byteLength": 412440,
      "byteOffset": 1199988,
      "byteStride": 8,
      "name": "floatBufferViews",
      "target": 34962
    },
    {
      "buffer": 0,
      "byteLength": 1237320,
      "byteOffset": 1612428,
      "byteStride": 12,
      "name": "floatBufferViews",
      "target": 34962
    }
  ],
  "buffers": [
    {
      "byteLength": 2849748,
      "uri": "scene.bin"
    }
  ],
  "extensionsUsed": [
    "KHR_materials_unlit"
  ],
  "images": [
    {
      "uri": "textures/objB5_baseColor.jpeg"
    }
  ],
  "materials": [
    {
      "doubleSided": true,
      "extensions": {
        "KHR_materials_unlit": {}
      },
      "name": "objB5",
      "pbrMetallicRoughness": {
        "baseColorTexture": {
          "index": 0
        },
        "metallicFactor": 0.0
      }
    }
  ],
  "meshes": [
    {
      "name": "Object_0",
      "primitives": [
        {
          "attributes": {
            "NORMAL": 1,
            "POSITION": 0,
            "TEXCOORD_0": 2
          },
          "indices": 3,
          "material": 0,
          "mode": 4
        }
      ]
    }
  ],
  "nodes": [
    {
      "children": [
        1
      ],
      "matrix": [
        0.9885878562927246,
        -0.1506340205669403,
        -0.001844816375523839,
        0.0,
        -0.13809193670749664,
        -0.9012461304664611,
        -0.4107141196727755,
        0.0,
        0.0602048821747303,
        0.4062817394733431,
        -0.9117622971534728,
        0.0,
        1.5122228860855103,
        9.725993156433107,
        -6.5483593940734846,
        1.0
      ],
      "name": "Sketchfab_model"
    },
    {
      "children": [
        2
      ],
      "name": "objB5.obj.cleaner.materialmerger.gles"
    },
    {
      "mesh": 0,
      "name": "Object_2"
    }
  ],
  "samplers": [
    {
      "magFilter": 9729,
      "minFilter": 9987,
      "wrapS": 10497,
      "wrapT": 10497
    }
  ],
  "scene": 0,
  "scenes": [
    {
      "name": "Sketchfab_Scene",
      "nodes": [
        0
      ]
    }
  ],
  "textures": [
    {
      "sampler": 0,
      "source": 0
    }
  ]
}
