{
  "accessors": [
    {
      "bufferView": 2,
      "componentType": 5126,
      "count": 54783,
      "max": [
        0.734891414642334,
        5.260492324829102,
        1.6026387214660645
      ],
      "min": [
        -1.8138699531555176,
        2.9107918739318848,
        -1.5851629972457886
      ],
      "type": "VEC3"
    },
    {
      "bufferView": 2,
      "byteOffset": 657396,
      "componentType": 5126,
      "count": 54783,
      "max": [
        0.9998524188995361,
        0.9999479651451111,
        0.9999922513961792
      ],
      "min": [
        -0.9999663829803467,
        -0.9999957084655762,
        -0.9999563694000244
      ],
      "type": "VEC3"
    },
    {
      "bufferView": 1,
      "componentType": 5126,
      "count": 54783,
      "max": [
        0.9716230034828186,
        0.9999920129776001
      ],
      "min": [
        9.600000339560211e-05,
        2.300000051036477e-05
      ],
      "type": "VEC2"
    },
    {
      "bufferView": 0,
      "componentType": 5125,
      "count": 299814,
      "type": "SCALAR"
    }
  ],
  "asset": {
    "extras": {
      "author": "fallenffgrave (https://sketchfab.com/fallenffgrave)",
      "license": "CC-BY-4.0 (http://creativecommons.org/licenses/by/4.0/)",
      "source": "https://sketchfab.com/3d-models/objb4-2b259363089b425387698bbb40cdbab9",
      "title": "Objb4"
    },
    "generator": "Sketchfab-11.79.0",
    "version": "2.0"
  },
  "bufferViews": [
    {
      "buffer": 0,
      "byteLength": 1199256,
      "name": "floatBufferViews",
      "target": 34963
    },
    {
      "buffer": 0,
      "byteLength": 438264,
      "byteOffset": 1199256,
      "byteStride": 8,
      "name": "floatBufferViews",
      "target": 34962
    },
    {
      "buffer": 0,
      "byteLength": 1314792,
      "byteOffset": 1637520,
      "byteStride": 12,
      "name": "floatBufferViews",
      "target": 34962
    }
  ],
  "buffers": [
    {
      "byteLength": 2952312,
      "uri": "oldwoman.bin"
    }
  ],
  "extensionsUsed": [
    "KHR_materials_unlit"
  ],
  "images": [
    {
      "uri": "textures/oldwoman.jpeg"
    }
  ],
  "materials": [
    {
      "doubleSided": true,
      "extensions": {
        "KHR_materials_unlit": {}
      },
      "name": "objb4",
      "pbrMetallicRoughness": {
        "baseColorTexture": {
          "index": 0
        },
        "metallicFactor": 0.0
      }
    }
  ],
  "meshes": [
    {
      "name": "Object_0",
      "primitives": [
        {
          "attributes": {
            "NORMAL": 1,
            "POSITION": 0,
            "TEXCOORD_0": 2
          },
          "indices": 3,
          "material": 0,
          "mode": 4
        }
      ]
    }
  ],
  "nodes": [
    {
      "children": [
        1
      ],
      "matrix": [
        0.9992921352386475,
        0.03407177701592446,
        -0.015948703512549393,
        0.0,
        -0.0038888503331691027,
        -0.3281165361404417,
        -0.9446292519569398,
        0.0,
        -0.03741823136806488,
        0.9440225958824159,
        -0.3277517557144163,
        0.0,
        0.015833649784326553,
        1.3594369888305664,
        -0.2319640964269635,
        1.0
      ],
      "name": "Sketchfab_model"
    },
    {
      "children": [
        2
      ],
      "name": "objb4.obj.cleaner.materialmerger.gles"
    },
    {
      "mesh": 0,
      "name": "Object_2"
    }
  ],
  "samplers": [
    {
      "magFilter": 9729,
      "minFilter": 9987,
      "wrapS": 10497,
      "wrapT": 10497
    }
  ],
  "scene": 0,
  "scenes": [
    {
      "name": "Sketchfab_Scene",
      "nodes": [
        0
      ]
    }
  ],
  "textures": [
    {
      "sampler": 0,
      "source": 0
    }
  ]
}
