{
  "accessors": [
    {
      "bufferView": 2,
      "componentType": 5126,
      "count": 52000,
      "max": [
        1.9815504550933838,
        6.780800819396973,
        2.300290584564209
      ],
      "min": [
        -1.7041199207305908,
        2.9193642139434814,
        -3.663783550262451
      ],
      "type": "VEC3"
    },
    {
      "bufferView": 2,
      "byteOffset": 624000,
      "componentType": 5126,
      "count": 52000,
      "max": [
        0.9999881982803345,
        0.9997835159301758,
        0.9999555945396423
      ],
      "min": [
        -0.9999633431434631,
        -0.9999627470970154,
        -0.9999147653579712
      ],
      "type": "VEC3"
    },
    {
      "bufferView": 1,
      "componentType": 5126,
      "count": 52000,
      "max": [
        0.9839469790458679,
        0.9999430179595947
      ],
      "min": [
        5.199999941396527e-05,
        9.600000339560211e-05
      ],
      "type": "VEC2"
    },
    {
      "bufferView": 0,
      "componentType": 5125,
      "count": 300000,
      "type": "SCALAR"
    }
  ],
  "asset": {
    "extras": {
      "author": "fallenffgrave (https://sketchfab.com/fallenffgrave)",
      "license": "CC-BY-4.0 (http://creativecommons.org/licenses/by/4.0/)",
      "source": "https://sketchfab.com/3d-models/objb7-191f0d24581248fcbd5adbf63cbeafd3",
      "title": "Objb7"
    },
    "generator": "Sketchfab-11.79.0",
    "version": "2.0"
  },
  "bufferViews": [
    {
      "buffer": 0,
      "byteLength": 1200000,
      "name": "floatBufferViews",
      "target": 34963
    },
    {
      "buffer": 0,
      "byteLength": 416000,
      "byteOffset": 1200000,
      "byteStride": 8,
      "name": "floatBufferViews",
      "target": 34962
    },
    {
      "buffer": 0,
      "byteLength": 1248000,
      "byteOffset": 1616000,
      "byteStride": 12,
      "name": "floatBufferViews",
      "target": 34962
    }
  ],
  "buffers": [
    {
      "byteLength": 2864000,
      "uri": "scene.bin"
    }
  ],
  "extensionsUsed": [
    "KHR_materials_unlit"
  ],
  "images": [
    {
      "uri": "textures/objb7_baseColor.jpeg"
    }
  ],
  "materials": [
    {
      "doubleSided": true,
      "extensions": {
        "KHR_materials_unlit": {}
      },
      "name": "objb7",
      "pbrMetallicRoughness": {
        "baseColorTexture": {
          "index": 0
        },
        "metallicFactor": 0.0
      }
    }
  ],
  "meshes": [
    {
      "name": "Object_0",
      "primitives": [
        {
          "attributes": {
            "NORMAL": 1,
            "POSITION": 0,
            "TEXCOORD_0": 2
          },
          "indices": 3,
          "material": 0,
          "mode": 4
        }
      ]
    }
  ],
  "nodes": [
    {
      "children": [
        1
      ],
      "matrix": [
        1.0,
        0.0,
        0.0,
        0.0,
        0.0,
        -0.3848096430301664,
        -0.9229959845542909,
        0.0,
        0.0,
        0.9229959845542909,
        -0.3848096430301664,
        0.0,
        0.0,
        1.813858509063721,
        -0.6358143091201778,
        1.0
      ],
      "name": "Sketchfab_model"
    },
    {
      "children": [
        2
      ],
      "name": "objb7.obj.cleaner.materialmerger.gles"
    },
    {
      "mesh": 0,
      "name": "Object_2"
    }
  ],
  "samplers": [
    {
      "magFilter": 9729,
      "minFilter": 9987,
      "wrapS": 10497,
      "wrapT": 10497
    }
  ],
  "scene": 0,
  "scenes": [
    {
      "name": "Sketchfab_Scene",
      "nodes": [
        0
      ]
    }
  ],
  "textures": [
    {
      "sampler": 0,
      "source": 0
    }
  ]
}
