{
  "accessors": [
    {
      "bufferView": 2,
      "componentType": 5126,
      "count": 59334,
      "max": [
        3.5027456283569336,
        10.442793846130371,
        2.951554775238037
      ],
      "min": [
        -2.3914103507995605,
        3.35379958152771,
        -5.088481903076172
      ],
      "type": "VEC3"
    },
    {
      "bufferView": 2,
      "byteOffset": 712008,
      "componentType": 5126,
      "count": 59334,
      "max": [
        0.9999995827674866,
        0.9999603033065796,
        0.9999518394470215
      ],
      "min": [
        -0.9999818801879883,
        -0.9999993443489075,
        -0.9999919533729553
      ],
      "type": "VEC3"
    },
    {
      "bufferView": 1,
      "componentType": 5126,
      "count": 59334,
      "max": [
        0.9889330267906189,
        0.9999930262565613
      ],
      "min": [
        8.299999899463728e-05,
        6.000000212225132e-06
      ],
      "type": "VEC2"
    },
    {
      "bufferView": 0,
      "componentType": 5125,
      "count": 300000,
      "type": "SCALAR"
    }
  ],
  "asset": {
    "extras": {
      "author": "fallenffgrave (https://sketchfab.com/fallenffgrave)",
      "license": "CC-BY-4.0 (http://creativecommons.org/licenses/by/4.0/)",
      "source": "https://sketchfab.com/3d-models/objn3-22736d441ea94585b9c3ade428255472",
      "title": "Objn3"
    },
    "generator": "Sketchfab-11.77.0",
    "version": "2.0"
  },
  "bufferViews": [
    {
      "buffer": 0,
      "byteLength": 1200000,
      "name": "floatBufferViews",
      "target": 34963
    },
    {
      "buffer": 0,
      "byteLength": 474672,
      "byteOffset": 1200000,
      "byteStride": 8,
      "name": "floatBufferViews",
      "target": 34962
    },
    {
      "buffer": 0,
      "byteLength": 1424016,
      "byteOffset": 1674672,
      "byteStride": 12,
      "name": "floatBufferViews",
      "target": 34962
    }
  ],
  "buffers": [
    {
      "byteLength": 3098688,
      "uri": "youngwoman.bin"
    }
  ],
  "extensionsUsed": [
    "KHR_materials_unlit"
  ],
  "images": [
    {
      "uri": "textures/objn3_baseColor.jpeg"
    }
  ],
  "materials": [
    {
      "doubleSided": true,
      "extensions": {
        "KHR_materials_unlit": {}
      },
      "name": "objn3",
      "pbrMetallicRoughness": {
        "baseColorTexture": {
          "index": 0
        },
        "metallicFactor": 0.0
      }
    }
  ],
  "meshes": [
    {
      "name": "Object_0",
      "primitives": [
        {
          "attributes": {
            "NORMAL": 1,
            "POSITION": 0,
            "TEXCOORD_0": 2
          },
          "indices": 3,
          "material": 0,
          "mode": 4
        }
      ]
    }
  ],
  "nodes": [
    {
      "children": [
        1
      ],
      "matrix": [
        0.9973487854003906,
        -0.07272792607545853,
        -0.0024643775541335505,
        0.0,
        0.025661353021860123,
        0.3831913173198702,
        -0.923312485218048,
        0.0,
        0.06809493154287338,
        0.9208013415336608,
        0.3840416669845583,
        0.0,
        -0.10278987139463425,
        -2.6875782012939453,
        -0.11731116473674834,
        1.0
      ],
      "name": "Sketchfab_model"
    },
    {
      "children": [
        2
      ],
      "name": "objn3.obj.cleaner.materialmerger.gles"
    },
    {
      "mesh": 0,
      "name": "Object_2"
    }
  ],
  "samplers": [
    {
      "magFilter": 9729,
      "minFilter": 9987,
      "wrapS": 10497,
      "wrapT": 10497
    }
  ],
  "scene": 0,
  "scenes": [
    {
      "name": "Sketchfab_Scene",
      "nodes": [
        0
      ]
    }
  ],
  "textures": [
    {
      "sampler": 0,
      "source": 0
    }
  ]
}
